<svg width="53" height="55" viewBox="0 0 53 55" fill="none" xmlns="http://www.w3.org/2000/svg">
<path d="M3.49426 54.9999H28.0938C28.3071 54.9999 28.5122 54.9123 28.6639 54.7635L32.6665 50.7734L40.1816 51.7253L41.4832 54.234C41.7325 54.7144 42.409 54.8309 42.7958 54.4031L45.3556 51.5709C45.498 51.4131 45.5725 51.2056 45.5627 50.9933L45.4283 48.1043C46.2176 47.5314 46.7626 46.6204 46.8874 45.6513L47.8755 37.9821C49.2748 38.6422 50.983 37.7199 51.1821 36.1744L52.4577 26.2748C52.6866 24.4981 51.609 22.7393 49.9159 22.1468C50.2331 20.2299 49.0693 18.3011 47.1164 17.8936L48.4417 7.31818C48.6421 5.71917 47.4528 4.19555 45.8523 3.99525L14.0989 0.0230196C12.4673 -0.180173 10.9738 0.977335 10.7697 2.60534C10.7676 2.62188 10.766 2.63864 10.765 2.65528L10.2271 6.94755H3.49426C1.84982 6.94755 0.51178 8.28248 0.51178 9.92316V41.0267C0.545717 42.0811 2.08072 42.1044 2.12271 41.0267V9.92316C2.12271 9.17064 2.73798 8.55849 3.49426 8.55849H35.4955C36.2517 8.55849 36.867 9.17064 36.867 9.92316V43.8401H30.2708C28.6264 43.8401 27.2884 45.1751 27.2884 46.8158V53.3889H3.49426C2.73798 53.3889 2.12271 52.7767 2.12271 52.0242V45.3172C2.12271 44.8722 1.76208 44.5117 1.31725 44.5117C0.872414 44.5117 0.51178 44.8722 0.51178 45.3172V52.0242C0.51178 53.665 1.84971 54.9999 3.49426 54.9999ZM43.9379 50.7366L42.3786 52.4618L41.3075 50.3976L41.8994 48.5028C42.5116 48.7635 43.1875 48.8495 43.8455 48.7525L43.9379 50.7366ZM50.4109 24.4117C50.7769 24.8859 50.9364 25.4744 50.8598 26.0688L49.5843 35.9684C49.4682 36.8697 48.036 36.663 48.1587 35.7831L48.4947 33.1762C48.6278 32.1432 47.0299 31.9379 46.8969 32.9704L45.2896 45.4454C45.1507 46.5224 44.1382 47.3039 43.0611 47.1651C41.984 47.0263 41.2025 46.0136 41.3413 44.9365L43.7009 26.6236L47.6491 27.1323L47.4432 28.7306C47.3101 29.7635 48.9078 29.9692 49.0409 28.9363L49.7015 23.8098C49.9739 23.9568 50.216 24.1592 50.4109 24.4117ZM48.3527 21.6718C48.1868 22.9594 48.0208 24.2469 47.855 25.5344L43.9067 25.0256L44.4044 21.163C44.4724 20.6356 44.7416 20.1664 45.1625 19.8416C45.5834 19.5167 46.1058 19.3752 46.6329 19.4431C47.7214 19.5836 48.4929 20.5833 48.3527 21.6718ZM35.4954 6.94755H11.8506L12.3681 2.81831C12.37 2.8037 12.3714 2.7892 12.3724 2.77449C12.481 2.04409 13.1587 1.52881 13.8989 1.62171L45.6521 5.59362C46.3916 5.68609 46.9359 6.37621 46.8431 7.11767L45.4885 17.9265C45.0186 18.0462 44.5737 18.2611 44.1782 18.5662C43.4166 19.154 42.9295 20.0032 42.8067 20.9573L42.206 25.6187V25.6189L39.7434 44.7307C39.6185 45.6997 39.9133 46.7202 40.5325 47.4754L39.7301 50.0443L34.1115 49.3326L38.2409 45.2161C38.3855 45.0533 38.4777 44.8687 38.4777 44.6456V9.92316C38.4778 8.28248 37.14 6.94755 35.4954 6.94755ZM30.2707 45.4511H35.7235L28.8993 52.254V46.8158C28.8992 46.0634 29.5145 45.4511 30.2707 45.4511Z" fill="black"/>
<path d="M33.6885 17.7706V12.3105C33.6885 11.8655 33.3279 11.505 32.883 11.505H5.99773C5.55289 11.505 5.19226 11.8655 5.19226 12.3105V17.7706C5.19226 18.2155 5.55289 18.576 5.99773 18.576H32.883C33.3279 18.576 33.6885 18.2155 33.6885 17.7706ZM32.0775 16.9651H6.80319V13.1159H32.0775V16.9651Z" fill="black"/>
<path d="M32.1218 22.6796H6.86776C5.80122 22.7165 5.80208 24.254 6.86776 24.2905H32.1218C33.1883 24.2537 33.1876 22.7161 32.1218 22.6796Z" fill="black"/>
<path d="M32.1218 28.157H15.4815C14.415 28.1939 14.4158 29.7314 15.4815 29.7679H32.1218C33.1884 29.7311 33.1876 28.1935 32.1218 28.157Z" fill="black"/>
<path d="M32.9273 34.4399C32.9273 33.9949 32.5668 33.6344 32.1218 33.6344H15.4815C14.415 33.6713 14.4158 35.2088 15.4815 35.2453H32.1218C32.5668 35.2453 32.9273 34.8848 32.9273 34.4399Z" fill="black"/>
<path d="M8.68686 35.1135C7.92231 35.1191 7.68357 35.0805 7.09601 34.6938C6.72442 34.4495 6.22503 34.5521 5.98028 34.9237C5.73574 35.2953 5.83863 35.7948 6.21021 36.0395C6.84621 36.4581 7.31617 36.6291 7.88687 36.692C7.7276 38.3188 9.73504 38.2126 9.4978 36.6121C10.671 36.2798 11.4238 35.2596 11.5942 34.2528C11.8194 32.9216 11.1021 31.7182 9.80946 31.2583C9.158 31.0266 7.51979 30.6827 7.70322 29.7131C7.75456 29.4413 7.93574 29.1126 8.28982 29.0053C8.79619 28.8516 9.34863 28.9523 9.72838 29.2274C9.72838 29.2274 10.2694 29.9764 10.9788 29.3189C11.6353 28.7103 10.8243 28.0467 10.8243 28.0467C10.5728 27.8133 10.1064 27.5256 9.49791 27.3911C9.63989 25.8399 7.6884 25.9144 7.88698 27.4466C6.98507 27.7018 6.29366 28.4972 6.12032 29.4136C5.95644 30.2803 6.23738 31.1209 6.85373 31.6075C7.36042 32.0074 8.06042 32.3459 9.26959 32.776C10.0703 33.0609 10.0512 33.7158 10.0059 33.984C9.91439 34.5242 9.46268 35.1083 8.68686 35.1135Z" fill="black"/>
<path d="M6.86776 49.6681H21.9453C23.0119 49.6311 23.011 48.0936 21.9453 48.0571H6.86776C5.80122 48.0941 5.80208 49.6315 6.86776 49.6681Z" fill="black"/>
</svg>
