<svg width="17" height="16" viewBox="0 0 17 16" fill="none" xmlns="http://www.w3.org/2000/svg">
<g clip-path="url(#clip0_9222_40)">
<path d="M11.7741 15.6118H5.13923C2.62762 15.6118 0.58429 13.682 0.58429 11.3099V5.0048C0.58429 2.6327 2.62762 0.702881 5.13923 0.702881H11.7741C14.2858 0.702881 16.3291 2.6327 16.3291 5.0048V11.3099C16.3291 13.682 14.2857 15.6118 11.7741 15.6118ZM5.13923 2.47075C3.65974 2.47075 2.45612 3.60751 2.45612 5.0048V11.3099C2.45612 12.7072 3.65974 13.844 5.13923 13.844H11.7741C13.2536 13.844 14.4573 12.7072 14.4573 11.3099V5.0048C14.4573 3.60751 13.2536 2.47075 11.7741 2.47075H5.13923Z" fill="white"/>
<path d="M8.4567 11.8459C6.30323 11.8459 4.55127 10.1912 4.55127 8.15746C4.55127 6.12362 6.30326 4.46899 8.4567 4.46899C10.6101 4.46899 12.3621 6.12365 12.3621 8.15746C12.3621 10.1913 10.6102 11.8459 8.4567 11.8459ZM8.4567 6.19346C7.31007 6.19346 6.37718 7.0745 6.37718 8.15746C6.37718 9.24041 7.31004 10.1215 8.4567 10.1215C9.60336 10.1215 10.5362 9.24041 10.5362 8.15746C10.5362 7.0745 9.60333 6.19346 8.4567 6.19346Z" fill="white"/>
<path d="M12.454 5.03333C12.0739 5.03333 11.7645 4.74122 11.7645 4.38214C11.7645 4.02307 12.0739 3.73096 12.454 3.73096C12.8342 3.73096 13.1435 4.02307 13.1435 4.38214C13.1435 4.74122 12.8342 5.03333 12.454 5.03333Z" fill="white"/>
</g>
<defs>
<clipPath id="clip0_9222_40">
<rect width="16.4409" height="15.5276" fill="white" transform="translate(0.236206 0.393799)"/>
</clipPath>
</defs>
</svg>
