<svg width="19" height="17" viewBox="0 0 19 17" fill="none" xmlns="http://www.w3.org/2000/svg">
<path d="M10.2974 12.2062C10.0653 12.4384 10.0653 12.8142 10.2974 13.0457C10.5296 13.2779 10.9054 13.2779 11.137 13.0457L15.2332 8.94889C15.3568 8.82536 15.4096 8.66091 15.4013 8.49938C15.4096 8.33729 15.3567 8.17343 15.2332 8.04993L11.137 3.95366C10.9054 3.7215 10.529 3.7215 10.2974 3.95366C10.0653 4.18582 10.0653 4.56166 10.2974 4.7932L13.4104 7.90622H0.59375C0.266 7.90625 0 8.17225 0 8.5C0 8.82775 0.266 9.09375 0.59375 9.09375H13.4104L10.2974 12.2062ZM16.625 0.1875H4.75C3.43841 0.1875 2.375 1.25091 2.375 2.5625V4.9375H3.5625V2.5625C3.5625 1.907 4.09391 1.375 4.75 1.375H16.625C17.2811 1.375 17.8125 1.907 17.8125 2.5625V14.4375C17.8125 15.093 17.2811 15.625 16.625 15.625H4.75C4.09391 15.625 3.5625 15.0936 3.5625 14.4375V12.0625H2.375V14.4375C2.375 15.7491 3.43841 16.8125 4.75 16.8125H16.625C17.9366 16.8125 19 15.7491 19 14.4375V2.5625C19 1.25091 17.9366 0.1875 16.625 0.1875Z" fill="#333333"/>
</svg>
