<svg width="181" height="49" viewBox="0 0 181 49" fill="none" xmlns="http://www.w3.org/2000/svg">
<path d="M38.3492 48.7308H39.0505V46.3721C39.4147 46.9003 39.9794 47.3739 40.8536 47.3739C41.992 47.3739 43.103 46.4632 43.103 44.9241C43.103 43.3577 41.9829 42.4652 40.8536 42.4652C39.9885 42.4652 39.433 42.9479 39.0505 43.5125V42.5654H38.3492V48.7308ZM40.7261 46.7455C39.8519 46.7455 39.0231 46.0169 39.0231 44.9241C39.0231 43.8313 39.8519 43.0936 40.7261 43.0936C41.6186 43.0936 42.3836 43.8039 42.3836 44.915C42.3836 46.0716 41.6368 46.7455 40.7261 46.7455ZM47.0924 47.383C48.5131 47.383 49.5604 46.2537 49.5604 44.9241C49.5604 43.5763 48.5222 42.4652 47.1107 42.4652C45.69 42.4652 44.6518 43.5945 44.6518 44.9241C44.6518 46.2719 45.6809 47.383 47.0924 47.383ZM47.1107 46.7546C46.118 46.7546 45.3712 45.935 45.3712 44.9241C45.3712 43.9132 46.0725 43.0845 47.0924 43.0845C48.0851 43.0845 48.841 43.9132 48.841 44.9241C48.841 45.935 48.1306 46.7546 47.1107 46.7546ZM52.3935 47.3101H53.0128L54.2878 43.5945L55.5536 47.3101H56.1638L57.8213 42.5654H57.0927L55.8542 46.3448L54.5792 42.5472H53.9963L52.7305 46.3448L51.4919 42.5654H50.7452L52.3935 47.3101ZM59.724 45.2064H63.4579C63.467 45.0971 63.467 45.0243 63.467 44.9605C63.467 43.5763 62.6656 42.4652 61.2722 42.4652C59.9699 42.4652 59.0137 43.5581 59.0137 44.9241C59.0137 46.3903 60.0701 47.383 61.3633 47.383C62.2558 47.383 62.8295 47.0278 63.303 46.4996L62.8659 46.108C62.4834 46.5087 62.0281 46.7728 61.3815 46.7728C60.5528 46.7728 59.8242 46.1991 59.724 45.2064ZM59.724 44.6418C59.8242 43.7311 60.4435 43.0572 61.254 43.0572C62.1829 43.0572 62.6747 43.7857 62.7566 44.6418H59.724ZM65.241 47.2737H65.9422V45.3977C65.9422 43.977 66.78 43.2393 67.8091 43.2393H67.8638V42.4834C66.9713 42.447 66.2883 43.0116 65.9422 43.7948V42.5654H65.241V47.2737ZM69.6925 45.2064H73.4264C73.4355 45.0971 73.4355 45.0243 73.4355 44.9605C73.4355 43.5763 72.6341 42.4652 71.2407 42.4652C69.9384 42.4652 68.9822 43.5581 68.9822 44.9241C68.9822 46.3903 70.0386 47.383 71.3318 47.383C72.2243 47.383 72.798 47.0278 73.2716 46.4996L72.8344 46.108C72.4519 46.5087 71.9966 46.7728 71.35 46.7728C70.5213 46.7728 69.7927 46.1991 69.6925 45.2064ZM69.6925 44.6418C69.7927 43.7311 70.412 43.0572 71.2225 43.0572C72.1514 43.0572 72.6432 43.7857 72.7251 44.6418H69.6925ZM77.1857 47.3739C78.0508 47.3739 78.6064 46.8912 78.9889 46.3266V47.2737H79.6901V40.6256H78.9889V43.467C78.6246 42.9388 78.06 42.4652 77.1857 42.4652C76.0564 42.4652 74.9363 43.3759 74.9363 44.915C74.9363 46.4814 76.0564 47.3739 77.1857 47.3739ZM77.3132 46.7455C76.4207 46.7455 75.6557 46.0351 75.6557 44.9241C75.6557 43.7675 76.4025 43.0936 77.3132 43.0936C78.1874 43.0936 79.0162 43.8222 79.0162 44.9059C79.0162 46.0078 78.1874 46.7455 77.3132 46.7455ZM87.5846 47.3739C88.7229 47.3739 89.834 46.4632 89.834 44.9241C89.834 43.3577 88.7138 42.4652 87.5846 42.4652C86.7194 42.4652 86.1639 42.9479 85.7814 43.5125V40.6256H85.0802V47.2737H85.7814V46.3721C86.1457 46.9003 86.7103 47.3739 87.5846 47.3739ZM87.4571 46.7455C86.5828 46.7455 85.7541 46.0169 85.7541 44.9241C85.7541 43.8313 86.5828 43.0936 87.4571 43.0936C88.3496 43.0936 89.1145 43.8039 89.1145 44.915C89.1145 46.0716 88.3678 46.7455 87.4571 46.7455ZM92.1715 48.7581C92.8818 48.7581 93.3372 48.4029 93.7379 47.4285L95.7141 42.5654H94.9673L93.4556 46.4905L91.7435 42.5654H90.9694L93.1095 47.2555C92.8272 47.9203 92.5631 48.1388 92.1442 48.1388C91.8436 48.1388 91.6342 48.0842 91.4065 47.9658L91.1697 48.5213C91.4885 48.6761 91.7799 48.7581 92.1715 48.7581ZM103.725 47.383C105.665 47.383 106.985 45.8439 106.985 44.0863C106.985 42.3104 105.683 40.7896 103.743 40.7896C101.803 40.7896 100.483 42.3286 100.483 44.0863C100.483 45.8621 101.785 47.383 103.725 47.383ZM103.743 46.7182C102.286 46.7182 101.229 45.5343 101.229 44.0863C101.229 42.62 102.268 41.4544 103.725 41.4544C105.182 41.4544 106.238 42.6383 106.238 44.0863C106.238 45.5525 105.2 46.7182 103.743 46.7182ZM109.194 47.2737H109.896V43.1847H111.38V42.5836H109.887V42.2011C109.887 41.5272 110.16 41.1994 110.706 41.1994C110.943 41.1994 111.134 41.2449 111.389 41.3178V40.7076C111.162 40.6256 110.943 40.5892 110.615 40.5892C110.187 40.5892 109.841 40.7167 109.604 40.9535C109.34 41.2176 109.194 41.6274 109.194 42.1647V42.5745H108.548V43.1847H109.194V47.2737ZM113.085 47.2737H113.786V43.1847H115.27V42.5836H113.777V42.2011C113.777 41.5272 114.05 41.1994 114.597 41.1994C114.833 41.1994 115.025 41.2449 115.28 41.3178V40.7076C115.052 40.6256 114.833 40.5892 114.505 40.5892C114.077 40.5892 113.731 40.7167 113.495 40.9535C113.231 41.2176 113.085 41.6274 113.085 42.1647V42.5745H112.438V43.1847H113.085V47.2737ZM123.066 47.383C124.141 47.383 125.033 46.9367 125.625 46.4085V43.8677H122.993V44.5143H124.933V46.0989C124.496 46.4541 123.822 46.7364 123.093 46.7364C121.545 46.7364 120.571 45.6071 120.571 44.0863C120.571 42.6474 121.581 41.4544 122.993 41.4544C123.895 41.4544 124.441 41.7549 124.933 42.1829L125.397 41.6365C124.76 41.0992 124.095 40.7896 123.02 40.7896C121.108 40.7896 119.824 42.3377 119.824 44.0863C119.824 45.9259 121.062 47.383 123.066 47.383ZM127.676 47.2737H128.377V45.3977C128.377 43.977 129.215 43.2393 130.244 43.2393H130.298V42.4834C129.406 42.447 128.723 43.0116 128.377 43.7948V42.5654H127.676V47.2737ZM133.858 47.383C135.278 47.383 136.326 46.2537 136.326 44.9241C136.326 43.5763 135.287 42.4652 133.876 42.4652C132.455 42.4652 131.417 43.5945 131.417 44.9241C131.417 46.2719 132.446 47.383 133.858 47.383ZM133.876 46.7546C132.883 46.7546 132.136 45.935 132.136 44.9241C132.136 43.9132 132.838 43.0845 133.858 43.0845C134.85 43.0845 135.606 43.9132 135.606 44.9241C135.606 45.935 134.896 46.7546 133.876 46.7546ZM139.873 47.3739C140.683 47.3739 141.166 46.964 141.484 46.4541V47.2737H142.177V42.5654H141.484V45.2611C141.484 46.1444 140.874 46.7364 140.073 46.7364C139.244 46.7364 138.771 46.19 138.771 45.3157V42.5654H138.069V45.4887C138.069 46.6089 138.734 47.3739 139.873 47.3739ZM144.3 48.7308H145.002V46.3721C145.366 46.9003 145.931 47.3739 146.805 47.3739C147.943 47.3739 149.054 46.4632 149.054 44.9241C149.054 43.3577 147.934 42.4652 146.805 42.4652C145.94 42.4652 145.384 42.9479 145.002 43.5125V42.5654H144.3V48.7308ZM146.677 46.7455C145.803 46.7455 144.974 46.0169 144.974 44.9241C144.974 43.8313 145.803 43.0936 146.677 43.0936C147.57 43.0936 148.335 43.8039 148.335 44.915C148.335 46.0716 147.588 46.7455 146.677 46.7455Z" fill="#F79900"/>
<path d="M2.29494 31.012H6.50234V15.685H14.0429V31.012H18.2503V11.8874H2.29494V31.012ZM30.1335 31.3398C34.6961 31.3398 38.0838 27.9247 38.0838 23.7173C38.0838 19.4553 34.7234 16.0948 30.1881 16.0948C25.6256 16.0948 22.2378 19.5099 22.2378 23.7173C22.2378 27.9794 25.5983 31.3398 30.1335 31.3398ZM30.1881 27.7608C27.8932 27.7608 26.3359 25.8757 26.3359 23.7173C26.3359 21.5043 27.7566 19.6739 30.1335 19.6739C32.4285 19.6739 33.9857 21.559 33.9857 23.7173C33.9857 25.9303 32.5651 27.7608 30.1881 27.7608ZM45.8446 27.4603C46.7462 25.3019 46.9102 22.7338 46.9375 20.2476V19.9197H50.8443V27.4603H45.8446ZM53.0027 31.012V34.4544H56.4997L56.9915 27.4603H54.9971V16.368H43.0306V17.6248C43.0306 21.1492 42.8394 24.8375 41.6099 27.4603H40.0253V34.4544H43.5224L43.8229 31.012H53.0027ZM73.0979 16.368H59.7927V31.012H63.9455V19.9197H68.9452V31.012H73.0979V16.368ZM90.9943 16.368H87.0875L81.3774 24.9194V16.368H77.3613V31.012H81.2681L86.9782 22.4879V31.012H90.9943V16.368Z" fill="#333333"/>
<path d="M130.913 16.463C130.913 26.8449 130.094 27.7465 128.537 27.7465C128.345 27.7465 127.826 27.6918 127.662 27.6645L127.389 31.025C127.936 31.1616 128.946 31.2709 129.493 31.2709C133.154 31.2709 134.82 29.7136 134.82 20.0147H138.536V31.1069H142.689V16.463H130.913ZM154.132 31.4348C158.695 31.4348 162.083 28.0197 162.083 23.8123C162.083 19.5503 158.722 16.1898 154.187 16.1898C149.624 16.1898 146.237 19.6049 146.237 23.8123C146.237 28.0743 149.597 31.4348 154.132 31.4348ZM154.187 27.8558C151.892 27.8558 150.335 25.9706 150.335 23.8123C150.335 21.5993 151.755 19.7688 154.132 19.7688C156.427 19.7688 157.984 21.654 157.984 23.8123C157.984 26.0253 156.564 27.8558 154.187 27.8558ZM179.05 16.463H174.898V22.0911H169.789V16.463H165.636V31.1069H169.789V25.5062H174.898V31.1069H179.05V16.463Z" fill="#F79900"/>
<path d="M119.433 34.4355C118.041 28.7774 116.384 25.7496 112.605 21.1172C109.498 23.6266 107.397 24.2763 103.086 24.369C104.15 25.4592 105.363 25.6287 108.077 25.5303C106.067 30.7307 104.307 32.2044 99.7193 32.3822C100.463 32.7994 100.776 33.1083 101.979 33.1074C107.575 36.6174 113.836 36.902 119.433 34.4355Z" fill="#F79900"/>
<path d="M93.9151 17.6332C95.3745 -2.00427 118.438 -5.66998 127.347 8.80702H125.49L129.204 16.9364L116.667 24.7174L114.578 14.7299L118.06 22.0463L127.347 16.3557L121.195 3.69713C117.056 7.23349 115.391 8.97267 113.765 11.5942C113.82 9.92771 114.243 8.82971 115.39 6.71662L112.605 7.18115C111.195 7.51909 110.531 7.48979 109.47 7.18115C106.5 8.77114 105.291 9.92162 103.898 12.4072C101.769 15.9646 101.38 18.8294 102.157 25.5303V26.5755C102.621 30.6402 99.1388 31.1047 97.3976 28.6659C95.6563 26.2271 94.2029 22.9325 93.9151 18.6784V17.6332Z" fill="#F79900"/>
<path d="M109.47 15.7751V13.9169C108.19 14.2233 107.265 15.7751 107.265 15.7751C108.054 15.3235 108.515 15.313 109.47 15.7751Z" fill="#F79900"/>
</svg>
