<svg width="167" height="45" viewBox="0 0 167 45" fill="none" xmlns="http://www.w3.org/2000/svg">
<path d="M35.2549 44.4443H35.8995V42.2759C36.2344 42.7615 36.7535 43.1968 37.5572 43.1968C38.6037 43.1968 39.6251 42.3596 39.6251 40.9447C39.6251 39.5047 38.5953 38.6843 37.5572 38.6843C36.7618 38.6843 36.2511 39.128 35.8995 39.6471V38.7764H35.2549V44.4443ZM37.44 42.6192C36.6362 42.6192 35.8744 41.9494 35.8744 40.9447C35.8744 39.9401 36.6362 39.2619 37.44 39.2619C38.2604 39.2619 38.9637 39.915 38.9637 40.9364C38.9637 41.9996 38.2772 42.6192 37.44 42.6192ZM43.2926 43.2052C44.5986 43.2052 45.5614 42.1671 45.5614 40.9447C45.5614 39.7057 44.607 38.6843 43.3093 38.6843C42.0033 38.6843 41.0489 39.7224 41.0489 40.9447C41.0489 42.1838 41.9949 43.2052 43.2926 43.2052ZM43.3093 42.6275C42.3968 42.6275 41.7103 41.874 41.7103 40.9447C41.7103 40.0154 42.3549 39.2536 43.2926 39.2536C44.2051 39.2536 44.9 40.0154 44.9 40.9447C44.9 41.874 44.247 42.6275 43.3093 42.6275ZM48.1659 43.1382H48.7352L49.9073 39.7224L51.071 43.1382H51.632L53.1557 38.7764H52.4859L51.3473 42.2508L50.1752 38.7596H49.6394L48.4757 42.2508L47.3371 38.7764H46.6506L48.1659 43.1382ZM54.9049 41.2043H58.3375C58.3459 41.1038 58.3459 41.0368 58.3459 40.9782C58.3459 39.7057 57.6091 38.6843 56.3282 38.6843C55.131 38.6843 54.2519 39.6889 54.2519 40.9447C54.2519 42.2926 55.2231 43.2052 56.4119 43.2052C57.2324 43.2052 57.7598 42.8787 58.1952 42.3931L57.7933 42.0331C57.4417 42.4015 57.0231 42.6443 56.4287 42.6443C55.6668 42.6443 54.997 42.1168 54.9049 41.2043ZM54.9049 40.6852C54.997 39.848 55.5663 39.2285 56.3114 39.2285C57.1654 39.2285 57.6175 39.8982 57.6928 40.6852H54.9049ZM59.9767 43.1047H60.6214V41.3801C60.6214 40.074 61.3916 39.3959 62.3377 39.3959H62.3879V38.701C61.5674 38.6675 60.9395 39.1866 60.6214 39.9066V38.7764H59.9767V43.1047ZM64.0691 41.2043H67.5017C67.51 41.1038 67.51 41.0368 67.51 40.9782C67.51 39.7057 66.7733 38.6843 65.4924 38.6843C64.2952 38.6843 63.4161 39.6889 63.4161 40.9447C63.4161 42.2926 64.3872 43.2052 65.5761 43.2052C66.3965 43.2052 66.924 42.8787 67.3593 42.3931L66.9575 42.0331C66.6059 42.4015 66.1872 42.6443 65.5928 42.6443C64.831 42.6443 64.1612 42.1168 64.0691 41.2043ZM64.0691 40.6852C64.1612 39.848 64.7305 39.2285 65.4756 39.2285C66.3296 39.2285 66.7817 39.8982 66.857 40.6852H64.0691ZM70.9576 43.1968C71.753 43.1968 72.2637 42.7531 72.6153 42.234V43.1047H73.26V36.9931H72.6153V39.6052C72.2804 39.1196 71.7614 38.6843 70.9576 38.6843C69.9195 38.6843 68.8897 39.5215 68.8897 40.9364C68.8897 42.3764 69.9195 43.1968 70.9576 43.1968ZM71.0748 42.6192C70.2544 42.6192 69.5511 41.9661 69.5511 40.9447C69.5511 39.8815 70.2376 39.2619 71.0748 39.2619C71.8786 39.2619 72.6404 39.9317 72.6404 40.928C72.6404 41.941 71.8786 42.6192 71.0748 42.6192ZM80.5175 43.1968C81.564 43.1968 82.5854 42.3596 82.5854 40.9447C82.5854 39.5047 81.5556 38.6843 80.5175 38.6843C79.7221 38.6843 79.2114 39.128 78.8598 39.6471V36.9931H78.2151V43.1047H78.8598V42.2759C79.1947 42.7615 79.7137 43.1968 80.5175 43.1968ZM80.4002 42.6192C79.5965 42.6192 78.8347 41.9494 78.8347 40.9447C78.8347 39.9401 79.5965 39.2619 80.4002 39.2619C81.2207 39.2619 81.924 39.915 81.924 40.9364C81.924 41.9996 81.2375 42.6192 80.4002 42.6192ZM84.7342 44.4694C85.3873 44.4694 85.8059 44.1429 86.1742 43.2471L87.991 38.7764H87.3045L85.9147 42.3847L84.3408 38.7764H83.6291L85.5966 43.088C85.337 43.6992 85.0942 43.9001 84.7091 43.9001C84.4328 43.9001 84.2403 43.8499 84.031 43.741L83.8133 44.2517C84.1063 44.394 84.3742 44.4694 84.7342 44.4694ZM95.3553 43.2052C97.1385 43.2052 98.3525 41.7903 98.3525 40.1745C98.3525 38.5419 97.1553 37.1438 95.372 37.1438C93.5888 37.1438 92.3748 38.5587 92.3748 40.1745C92.3748 41.8071 93.572 43.2052 95.3553 43.2052ZM95.372 42.594C94.0325 42.594 93.0613 41.5057 93.0613 40.1745C93.0613 38.8266 94.0158 37.755 95.3553 37.755C96.6948 37.755 97.666 38.8433 97.666 40.1745C97.666 41.5224 96.7116 42.594 95.372 42.594ZM100.384 43.1047H101.028V39.3457H102.393V38.7931H101.02V38.4415C101.02 37.8219 101.271 37.5206 101.773 37.5206C101.991 37.5206 102.167 37.5624 102.401 37.6294V37.0685C102.192 36.9931 101.991 36.9596 101.69 36.9596C101.296 36.9596 100.978 37.0768 100.76 37.2945C100.518 37.5373 100.384 37.914 100.384 38.408V38.7847H99.7892V39.3457H100.384V43.1047ZM103.96 43.1047H104.605V39.3457H105.969V38.7931H104.596V38.4415C104.596 37.8219 104.848 37.5206 105.35 37.5206C105.568 37.5206 105.743 37.5624 105.978 37.6294V37.0685C105.768 36.9931 105.568 36.9596 105.266 36.9596C104.873 36.9596 104.555 37.0768 104.337 37.2945C104.094 37.5373 103.96 37.914 103.96 38.408V38.7847H103.366V39.3457H103.96V43.1047ZM113.136 43.2052C114.124 43.2052 114.944 42.795 115.488 42.3094V39.9736H113.069V40.568H114.852V42.0247C114.45 42.3512 113.831 42.6108 113.161 42.6108C111.738 42.6108 110.842 41.5726 110.842 40.1745C110.842 38.8517 111.771 37.755 113.069 37.755C113.898 37.755 114.4 38.0312 114.852 38.4247L115.279 37.9224C114.693 37.4285 114.082 37.1438 113.094 37.1438C111.336 37.1438 110.155 38.5671 110.155 40.1745C110.155 41.8657 111.294 43.2052 113.136 43.2052ZM117.374 43.1047H118.018V41.3801C118.018 40.074 118.789 39.3959 119.735 39.3959H119.785V38.701C118.964 38.6675 118.336 39.1866 118.018 39.9066V38.7764H117.374V43.1047ZM123.057 43.2052C124.363 43.2052 125.326 42.1671 125.326 40.9447C125.326 39.7057 124.371 38.6843 123.073 38.6843C121.767 38.6843 120.813 39.7224 120.813 40.9447C120.813 42.1838 121.759 43.2052 123.057 43.2052ZM123.073 42.6275C122.161 42.6275 121.474 41.874 121.474 40.9447C121.474 40.0154 122.119 39.2536 123.057 39.2536C123.969 39.2536 124.664 40.0154 124.664 40.9447C124.664 41.874 124.011 42.6275 123.073 42.6275ZM128.586 43.1968C129.331 43.1968 129.775 42.8201 130.068 42.3512V43.1047H130.704V38.7764H130.068V41.2545C130.068 42.0666 129.507 42.6108 128.771 42.6108C128.009 42.6108 127.573 42.1085 127.573 41.3047V38.7764H126.929V41.4638C126.929 42.4936 127.54 43.1968 128.586 43.1968ZM132.657 44.4443H133.302V42.2759C133.636 42.7615 134.156 43.1968 134.959 43.1968C136.006 43.1968 137.027 42.3596 137.027 40.9447C137.027 39.5047 135.997 38.6843 134.959 38.6843C134.164 38.6843 133.653 39.128 133.302 39.6471V38.7764H132.657V44.4443ZM134.842 42.6192C134.038 42.6192 133.276 41.9494 133.276 40.9447C133.276 39.9401 134.038 39.2619 134.842 39.2619C135.663 39.2619 136.366 39.915 136.366 40.9364C136.366 41.9996 135.679 42.6192 134.842 42.6192Z" fill="#F79900"/>
<path d="M2.10977 29.2849H5.97767V15.1947H12.9098V29.2849H16.7777V11.7035H2.10977V29.2849ZM27.7021 29.5863C31.8965 29.5863 35.0109 26.4468 35.0109 22.5789C35.0109 18.6607 31.9216 15.5714 27.7523 15.5714C23.5579 15.5714 20.4435 18.711 20.4435 22.5789C20.4435 26.497 23.5328 29.5863 27.7021 29.5863ZM27.7523 26.2961C25.6425 26.2961 24.2109 24.5631 24.2109 22.5789C24.2109 20.5444 25.517 18.8617 27.7021 18.8617C29.8118 18.8617 31.2435 20.5947 31.2435 22.5789C31.2435 24.6133 29.9374 26.2961 27.7523 26.2961ZM42.1455 26.0198C42.9743 24.0356 43.125 21.6747 43.1502 19.3891V19.0877H46.7418V26.0198H42.1455ZM48.726 29.2849V32.4496H51.9409L52.3929 26.0198H50.5595V15.8226H39.5585V16.9779C39.5585 20.2179 39.3827 23.6086 38.2525 26.0198H36.7957V32.4496H40.0106L40.2869 29.2849H48.726ZM67.1998 15.8226H54.9681V29.2849H58.7858V19.0877H63.3821V29.2849H67.1998V15.8226ZM83.6521 15.8226H80.0605L74.8112 23.684V15.8226H71.1191V29.2849H74.7107L79.96 21.4486V29.2849H83.6521V15.8226Z" fill="white"/>
<path d="M120.35 15.9097C120.35 25.4539 119.597 26.2828 118.165 26.2828C117.989 26.2828 117.512 26.2325 117.361 26.2074L117.11 29.2967C117.613 29.4223 118.542 29.5228 119.044 29.5228C122.41 29.5228 123.942 28.0911 123.942 19.1749H127.358V29.3721H131.175V15.9097H120.35ZM141.696 29.6735C145.89 29.6735 149.004 26.5339 149.004 22.666C149.004 18.7479 145.915 15.6586 141.746 15.6586C137.551 15.6586 134.437 18.7981 134.437 22.666C134.437 26.5842 137.526 29.6735 141.696 29.6735ZM141.746 26.3832C139.636 26.3832 138.204 24.6502 138.204 22.666C138.204 20.6316 139.51 18.9488 141.696 18.9488C143.805 18.9488 145.237 20.6818 145.237 22.666C145.237 24.7004 143.931 26.3832 141.746 26.3832ZM164.603 15.9097H160.785V21.0837H156.089V15.9097H152.271V29.3721H156.089V24.2232H160.785V29.3721H164.603V15.9097Z" fill="#F79900"/>
<path d="M109.796 31.657C108.516 26.4554 106.993 23.6719 103.519 19.4133C100.662 21.7202 98.731 22.3175 94.7678 22.4027C95.7459 23.4049 96.861 23.5608 99.3566 23.4703C97.5084 28.2511 95.8907 29.6059 91.673 29.7693C92.3569 30.1529 92.6448 30.4369 93.75 30.436C98.8953 33.6628 104.651 33.9244 109.796 31.657Z" fill="#F79900"/>
<path d="M86.3372 16.2104C87.6789 -1.84255 108.881 -5.21248 117.072 8.09639H115.364L118.779 15.5698L107.254 22.723L105.333 13.5413L108.534 20.2674L117.072 15.036L111.416 3.39881C107.611 6.64983 106.08 8.24868 104.586 10.6587C104.636 9.12665 105.025 8.11725 106.08 6.17466L103.519 6.60172C102.222 6.91239 101.613 6.88545 100.637 6.60172C97.9071 8.06341 96.7956 9.12106 95.5148 11.4061C93.5577 14.6764 93.2 17.31 93.9141 23.4703V24.4312C94.3409 28.1679 91.1394 28.5949 89.5387 26.3529C87.9379 24.1109 86.6018 21.0821 86.3372 17.1713V16.2104Z" fill="#F79900"/>
<path d="M100.637 14.5022V12.794C99.4604 13.0757 98.6096 14.5022 98.6096 14.5022C99.3356 14.0871 99.7591 14.0775 100.637 14.5022Z" fill="#F79900"/>
</svg>
