<svg width="127" height="27" viewBox="0 0 127 27" fill="none" xmlns="http://www.w3.org/2000/svg">
<path d="M1.61026 21.3233H4.56241V10.569H9.85328V21.3233H12.8054V7.90444H1.61026V21.3233ZM21.1434 21.5533C24.3448 21.5533 26.7218 19.1571 26.7218 16.205C26.7218 13.2145 24.3639 10.8566 21.1817 10.8566C17.9804 10.8566 15.6033 13.2528 15.6033 16.205C15.6033 19.1955 17.9612 21.5533 21.1434 21.5533ZM21.1817 19.0421C19.5715 19.0421 18.4788 17.7194 18.4788 16.205C18.4788 14.6522 19.4756 13.3678 21.1434 13.3678C22.7537 13.3678 23.8463 14.6905 23.8463 16.205C23.8463 17.7577 22.8495 19.0421 21.1817 19.0421ZM32.1672 18.8312C32.7998 17.3168 32.9149 15.5149 32.934 13.7704V13.5404H35.6753V18.8312H32.1672ZM37.1897 21.3233V23.7387H39.6435L39.9885 18.8312H38.5891V11.0483H30.1928V11.9301C30.1928 14.403 30.0586 16.9909 29.1959 18.8312H28.0841V23.7387H30.5378L30.7487 21.3233H37.1897ZM51.2897 11.0483H41.954V21.3233H44.8678V13.5404H48.3759V21.3233H51.2897V11.0483ZM63.8468 11.0483H61.1056L57.0991 17.0484V11.0483H54.2811V21.3233H57.0224L61.0289 15.3423V21.3233H63.8468V11.0483Z" fill="#333333"/>
<path d="M91.8566 11.1149C91.8566 18.3994 91.2815 19.032 90.1888 19.032C90.0546 19.032 89.6904 18.9937 89.5754 18.9745L89.3837 21.3324C89.7671 21.4282 90.4764 21.5049 90.8598 21.5049C93.4285 21.5049 94.5979 20.4122 94.5979 13.6069H97.205V21.3899H100.119V11.1149H91.8566ZM108.148 21.6199C111.35 21.6199 113.727 19.2237 113.727 16.2716C113.727 13.2811 111.369 10.9232 108.187 10.9232C104.985 10.9232 102.608 13.3194 102.608 16.2716C102.608 19.262 104.966 21.6199 108.148 21.6199ZM108.187 19.1087C106.576 19.1087 105.484 17.786 105.484 16.2716C105.484 14.7188 106.48 13.4344 108.148 13.4344C109.758 13.4344 110.851 14.7571 110.851 16.2716C110.851 17.8243 109.854 19.1087 108.187 19.1087ZM125.632 11.1149H122.718V15.0639H119.134V11.1149H116.22V21.3899H119.134V17.4601H122.718V21.3899H125.632V11.1149Z" fill="#F79900"/>
<path d="M83.8014 24.162C82.8242 20.1919 81.6618 18.0674 79.0098 14.817C76.8298 16.5778 75.3557 17.0337 72.3308 17.0987C73.0773 17.8636 73.9284 17.9826 75.8332 17.9135C74.4226 21.5624 73.1879 22.5965 69.9688 22.7212C70.4907 23.0139 70.7105 23.2307 71.554 23.2301C75.4811 25.6929 79.8742 25.8926 83.8014 24.162Z" fill="#F79900"/>
<path d="M65.8962 12.3725C66.9203 -1.40631 83.1029 -3.97838 89.354 6.17951H88.0508L90.6572 11.8836L81.8606 17.3431L80.3944 10.3353L82.838 15.4689L89.354 11.4761L85.0371 2.59412C82.1334 5.07543 80.9651 6.29574 79.8243 8.13519C79.8627 6.96585 80.1596 6.19543 80.9646 4.71277L79.0098 5.03871C78.0205 5.27583 77.5552 5.25527 76.8106 5.03871C74.7269 6.15433 73.8785 6.96158 72.901 8.70559C71.4072 11.2017 71.1342 13.2118 71.6792 17.9135V18.6469C72.005 21.4989 69.5615 21.8249 68.3397 20.1137C67.118 18.4024 66.0982 16.0907 65.8962 13.1058V12.3725Z" fill="#F79900"/>
<path d="M76.8106 11.0687V9.76491C75.9124 9.97989 75.263 11.0687 75.263 11.0687C75.8172 10.7519 76.1404 10.7445 76.8106 11.0687Z" fill="#F79900"/>
</svg>
