<svg width="39" height="39" viewBox="0 0 39 39" fill="none" xmlns="http://www.w3.org/2000/svg">
<g clip-path="url(#clip0_4315_198)">
<path d="M19.5 0C8.72965 0 0 8.72965 0 19.5C0 30.2702 8.72965 39 19.5 39C30.2702 39 39 30.2702 39 19.5C39 8.72965 30.2702 0 19.5 0ZM28.8308 21.0656L17.1992 29.0675C16.8756 29.2891 16.499 29.4024 16.1214 29.4024C15.8174 29.4024 15.5156 29.3302 15.2377 29.185C14.6132 28.8547 14.221 28.207 14.221 27.5021V11.4981C14.221 10.7932 14.6132 10.1455 15.2377 9.81507C15.8623 9.48747 16.6169 9.5326 17.1992 9.93263L28.8308 17.9344C29.3455 18.2888 29.6539 18.875 29.6539 19.5C29.6539 20.125 29.3456 20.7112 28.8308 21.0656Z" fill="white"/>
</g>
<defs>
<clipPath id="clip0_4315_198">
<rect width="39" height="39" fill="white"/>
</clipPath>
</defs>
</svg>
