<svg width="19" height="12" viewBox="0 0 19 12" fill="none" xmlns="http://www.w3.org/2000/svg">
<path d="M15.8857 7.09757C16.4966 7.72238 17.1414 8.31027 17.6893 8.99808C17.9313 9.30374 18.1604 9.61917 18.3357 9.97388C18.5841 10.4781 18.3591 11.0331 17.9276 11.0632L15.2447 11.0619C14.5527 11.122 14.0007 10.8302 13.5366 10.3345C13.1651 9.93813 12.8211 9.5163 12.464 9.10656C12.3175 8.93909 12.1642 8.78151 11.9812 8.65694C11.6149 8.40788 11.297 8.48413 11.0877 8.88434C10.8745 9.29137 10.8262 9.74205 10.8053 10.1957C10.7765 10.8575 10.5856 11.0315 9.95095 11.0618C8.59474 11.1288 7.30761 10.9139 6.1119 10.1971C5.05775 9.56524 4.2403 8.67323 3.52876 7.6634C2.14341 5.69707 1.08252 3.53631 0.129081 1.31499C-0.0855463 0.814549 0.0714249 0.545902 0.598496 0.536364C1.47375 0.518546 2.34886 0.519842 3.22512 0.535069C3.58084 0.540525 3.81633 0.754266 3.95371 1.10635C4.42725 2.32616 5.00669 3.4867 5.73397 4.56239C5.92765 4.84878 6.12512 5.13516 6.4064 5.33674C6.71753 5.55994 6.95441 5.48596 7.10078 5.12288C7.19365 4.89266 7.2343 4.64469 7.25524 4.3981C7.32458 3.54977 7.33373 2.70285 7.21212 1.85755C7.13745 1.32994 6.85382 0.988454 6.35125 0.88857C6.09481 0.837666 6.13299 0.737703 6.25714 0.584364C6.47278 0.319916 6.67564 0.155273 7.07991 0.155273H10.112C10.5893 0.25398 10.6953 0.478632 10.7607 0.981782L10.7633 4.51023C10.7581 4.70505 10.8561 5.28309 11.1911 5.41201C11.4591 5.50381 11.6358 5.27916 11.7966 5.1011C12.5226 4.2939 13.0407 3.33996 13.5036 2.35214C13.709 1.91779 13.8856 1.46672 14.0568 1.01605C14.1836 0.681619 14.3826 0.517016 14.7422 0.524355L17.6605 0.527063C17.747 0.527063 17.8346 0.528397 17.9184 0.543429C18.4101 0.631225 18.5449 0.852855 18.393 1.35589C18.1537 2.14515 17.6881 2.80286 17.2328 3.46362C16.7462 4.16905 16.2257 4.85039 15.7431 5.56006C15.2997 6.20807 15.3349 6.53476 15.8857 7.09757Z" fill="white"/>
</svg>
