<svg width="17" height="16" viewBox="0 0 17 16" fill="none" xmlns="http://www.w3.org/2000/svg">
<g clip-path="url(#clip0_9222_45)">
<path d="M15.577 3.81207C15.0071 3.17234 13.9551 2.91138 11.9459 2.91138H4.65254C2.59736 2.91138 1.52747 3.18917 0.959812 3.87026C0.406311 4.53434 0.406311 5.51279 0.406311 6.86699V9.44812C0.406311 12.0717 1.06299 13.4037 4.65254 13.4037H11.9459C13.6883 13.4037 14.6538 13.1734 15.2784 12.6088C15.9189 12.0299 16.1922 11.0846 16.1922 9.44809V6.86696C16.1922 5.43888 16.1494 4.45464 15.577 3.81207ZM10.5409 8.51392L7.22904 10.1487C7.155 10.1853 7.07404 10.2034 6.99319 10.2034C6.90161 10.2034 6.81028 10.1801 6.72936 10.1338C6.57699 10.0466 6.48397 9.89065 6.48397 9.72243V6.4634C6.48397 6.29548 6.57674 6.13962 6.72882 6.05237C6.88093 5.96515 7.07013 5.95918 7.22792 6.0366L10.5398 7.66081C10.7083 7.74342 10.8141 7.90773 10.8144 8.08694C10.8146 8.26638 10.7092 8.43091 10.5409 8.51392Z" fill="white"/>
</g>
<defs>
<clipPath id="clip0_9222_45">
<rect width="16.4409" height="15.5276" fill="white" transform="translate(0.0787354 0.393799)"/>
</clipPath>
</defs>
</svg>
